<?xml version="1.0" encoding="UTF-8"?>
<svg xmlns="http://www.w3.org/2000/svg" viewBox="0 0 251.39 330.64">
  <defs>
    <style>
      .cls-1 {
        fill: #000;
      }

      .cls-1, .cls-2 {
        stroke-width: 0px;
      }

      .cls-2 {
        fill: #fff;
      }
    </style>
  </defs>

  <g id="OBJECTS">
    <path class="cls-1" d="M236.2,22.98c-.26.22.34,1.23,0,1.91-1.68,3.4-6.8,8.49-3.01,11.49l-3.01,2.55c0,.42,1.32.75,1.5,1.28.87,2.56-1.44,4.91-4.51,4.47-.03,4.96-6.87,9.37-10.53,13.4-20.09,22.13-38.64,45.72-58.67,67.66-1.25,1.37-3.17,2.48-4.51,3.83v1.28c.95,1.93,3.4,3.53,4.51,5.11,9.02,12.69,18.5,25.41,27.08,37.02,12.81,17.34,25.3,34.78,36.11,52.34,6.71,10.9,13.13,21.55,19.56,33.19,3.05,5.53,4.15,10.77,6.02,16.6.18.56,2.89,3.35,3.01,3.83.92,3.6.27,7,1.5,11.49.9,3.27-2.52,6-1.5,9.57-2.92-.88-4.2.97-5.27,1.28-.87.25-2.06-.23-3.01,0-1.84.45-6.79,5.86-9.78,5.11.36,2.61-.52,5.84,0,8.3.08.37,2.37,1.3,1.5,3.83l-1.5,3.19c-1.75.09-2.89.21-4.51-.64-4.6-2.4-1.94-1.92-6.77-.64-2.69.71-5.14-2.12-8.27-1.28l1.5,8.3-5.27,3.19c-1.22-1.62-4.82-1.88-6.02-2.55-3.41-1.92-7.34-7.43-10.53-8.94-2-.95-4.7-3.21-6.77-5.74-18.96-23.26-34.21-49.28-49.65-74.04-8.94-14.33-18.39-30.75-27.08-44.68-1.45-2.33-4.53-4.33-4.51-7.02-3.94-.84-3.85,2.51-4.51,3.19-12.77,13.14-25.94,28.46-39.12,40.85-6.9,6.49-15.8,12.1-21.06,19.15-2.45,3.29-9.53,3.85-12.04,7.66-1.72,2.62-10.61,7.2-14.29,9.57-1.31.84-1.44,1.76-3.76,1.28v-3.83c-3.45-.24-8.75-2.12-7.52-5.74.58-1.72,1.6-2.61-1.5-5.11l1.5-6.38c1.72-1.79,4.46-3.32,6.02-5.11,5.62-6.44,11.16-15,16.55-21.7,17.58-21.89,34.94-43.57,51.15-66.38,1.12-1.57,3.56-3.17,4.51-5.11l-4.51-8.94c-15.14-20.25-24.65-40.27-37.61-61.28-8.61-13.95-19.24-25.68-24.07-42.13-.15-.51-1.4-.8-1.5-1.28-.3-1.45-.26-4.88,0-6.38.08-.47,1.38-.78,1.5-1.28.3-1.16-.34-2.76,0-3.83.09-.28,2.43-4.22,3.01-5.11.97-1.49,3.9-1.98,3.01-4.47,2.47-.62,2.65.79,3.76,1.28,4.62,2.02,8.82,3.74,15.04,2.55.6-.11,1.03-1.74,3.01-1.28.61.14.94,1.18,1.5,1.28,1.39.24,3.27-.29,4.51,0,1.41.33,7.26,5.2,9.03,6.38,24.47,16.43,43.8,40.88,60.93,61.91,1.52,1.87,5.14,2.9,4.51,5.74,4.04,1.04,3.09-2.36,4.51-4.47,4.17-6.15,10.59-12.12,15.04-17.87,14.41-18.63,28.07-38.83,43.63-57.45,1.92-2.29,8.45-7.23,9.03-8.94.51-1.52-.57-3.13,2.26-4.47,3.41,3.7,7.48,5.39,12.04,7.66h3.01c1.72-2.23,4.81-.89,7.52-1.28,2.66-.38,4.04.11,4.51,0,.6-.14.93-1.16,1.5-1.28,6.13-1.2,6.89,3.31,9.03,3.83.93.23,2.08-.23,3.01,0,1.49.36,3.95,5.91,6.77,7.02v1.28c-1.76,1.65-2.58,4.48-5.27,5.74-.71.34-1.98-.24-2.26,0Z"/>
  </g>
</svg>